<svg width="978" height="445" viewBox="0 0 978 445" fill="none" xmlns="http://www.w3.org/2000/svg">
<path d="M709.212 266.967L691.68 261.981C702.915 222.33 693.299 181.787 693.198 181.401L710.892 177.043C711.337 178.888 721.804 222.532 709.212 266.967Z" fill="#E56B37"/>
<path opacity="0.16" d="M652.688 221.943C652.688 237.633 650.522 252.816 646.453 267.25C643.436 278.156 639.306 288.717 634.124 298.63C606.388 352.471 550.25 389.325 485.508 389.325C420.765 389.325 364.708 352.491 336.973 298.63C331.79 288.717 327.66 278.135 324.583 267.25C320.514 252.796 318.348 237.633 318.348 221.943C318.348 206.252 320.514 191.069 324.644 176.697C325.433 173.676 326.344 170.716 327.336 167.838C349.767 101.915 412.141 54.5605 485.528 54.5605C558.915 54.5605 621.289 101.915 643.72 167.838C644.712 170.737 645.623 173.676 646.412 176.697C650.542 191.069 652.708 206.252 652.708 221.943H652.688Z" fill="#E56B37"/>
<path d="M653.317 222.714C653.317 238.404 651.151 253.588 647.082 268.021C644.065 278.927 639.935 289.489 634.753 299.401C607.017 353.243 550.879 390.096 486.137 390.096C421.394 390.096 365.337 353.263 337.602 299.401C332.419 289.489 328.289 278.907 325.212 268.021C321.143 253.567 318.977 238.404 318.977 222.714C318.977 207.024 321.143 191.841 325.273 177.468C326.062 174.448 326.973 171.488 327.965 168.609C350.396 102.686 412.77 55.332 486.157 55.332C559.544 55.332 621.917 102.686 644.349 168.609C645.341 171.508 646.251 174.448 647.041 177.468C651.171 191.841 653.337 207.024 653.337 222.714H653.317Z" fill="url(#paint0_radial_516_249)" style="mix-blend-mode:soft-light"/>
<path d="M666.595 167.454H642.828L642.666 166.988C619.425 100.152 556.262 55.2307 485.507 55.2307C414.752 55.2307 356.71 96.0981 331.182 159.406H360.496C363.796 153.669 407.14 81.2999 485.487 78.2997L485.547 79.6579C405.156 82.7392 361.934 159.649 361.508 160.42L361.306 160.785H329.178L329.542 159.852C341.81 128.938 362.784 102.544 390.236 83.5703C418.315 64.1502 451.253 53.8725 485.527 53.8725C556.707 53.8725 620.255 98.9361 643.82 166.075H664.692C662.688 160.683 651.371 132.1 626.491 103.274C601.144 73.9008 556.1 38.2634 485.507 35.243L485.568 33.8848C556.667 36.9255 602.015 72.8264 627.564 102.423C655.218 134.472 666.211 166.238 666.312 166.542L666.615 167.454H666.595Z" fill="#E56B37"/>
<path d="M485.508 405.787C419.044 405.787 376.956 377.407 353.35 353.629C327.781 327.843 317.801 301.693 317.7 301.429L317.355 300.497H338.693L338.876 300.862C367.967 355.007 424.146 388.658 485.487 388.658C546.829 388.658 603.696 354.683 632.646 299.929H602.339C599.161 304.47 560.534 357.156 485.467 357.156V355.777C562.781 355.777 601.023 299.422 601.408 298.855L601.611 298.551H634.893L634.366 299.544C605.336 355.352 548.286 390.016 485.467 390.016C422.648 390.016 367.218 356.244 337.843 301.855H319.319C321.323 306.7 331.648 329.83 354.342 352.696C377.745 376.292 419.51 404.409 485.487 404.409V405.787H485.508Z" fill="#E56B37"/>
<path d="M485.508 424.03C472.875 424.03 460.303 422.854 448.176 420.523C387.645 409.232 334.563 369.621 306.18 314.523C298.386 299.522 292.576 283.69 288.912 267.493L288.588 266.094H323.085C311.707 224.436 320.979 185.758 323.145 177.812H288.608L288.912 176.413C290.39 169.865 292.293 163.196 294.58 156.587C318.044 87.421 377.239 36.2962 449.047 23.1805C472.794 18.8018 498.241 18.8018 521.988 23.1805C593.796 36.2962 652.971 87.4007 676.455 156.587C678.581 162.73 680.443 169.196 682.124 176.393L682.447 177.792H647.89C651.817 192.002 653.821 206.841 653.821 221.902C653.821 236.964 651.838 251.722 647.951 266.074H682.447L682.124 267.473C678.479 283.589 672.69 299.4 664.916 314.503C636.553 369.621 583.411 409.272 522.778 420.563C510.51 422.834 497.978 423.989 485.508 423.989V424.03ZM291.442 268.385C295.086 283.913 300.714 299.076 308.205 313.489C336.264 367.959 388.738 407.144 448.602 418.293C472.429 422.854 497.917 422.895 522.353 418.374C582.297 407.204 634.832 367.999 662.871 313.509C670.341 299.015 675.949 283.852 679.573 268.405H644.934L645.339 266.946C649.449 252.37 651.534 237.228 651.534 221.943C651.534 206.658 649.428 191.455 645.278 177.021L644.853 175.562H679.552C677.973 169.014 676.232 163.054 674.269 157.378C651.048 88.9819 592.541 38.4449 521.543 25.4712C498.039 21.133 472.915 21.133 449.411 25.4712C378.413 38.4247 319.906 88.9616 296.686 157.358C294.58 163.419 292.799 169.541 291.402 175.562H326.142L325.676 177.041C325.534 177.467 312.436 220.524 325.615 266.946L326.02 268.405H291.382L291.442 268.385Z" fill="#E56B37"/>
<path d="M521.785 3.86196C602.581 17.2614 668.558 74.5285 694.391 150.506C702.124 172.906 706.254 197.009 706.254 221.963C706.254 258.473 697.407 292.954 681.717 323.281C650.561 383.893 592.074 428.145 522.554 439.842V419.489C510.549 421.719 498.159 422.895 485.506 422.895C472.853 422.895 460.383 421.719 448.378 419.408V439.822C378.918 428.064 320.492 383.811 289.336 323.26C273.606 292.914 264.738 258.452 264.738 221.943C264.738 196.989 268.868 172.886 276.602 150.486C302.434 74.5083 368.411 17.2412 449.208 3.84169V24.3362C460.95 22.1672 473.076 21.0522 485.466 21.0522C497.856 21.0522 510.002 22.1672 521.724 24.3362V3.86196H521.785ZM520.428 2.24023V22.7145C509.051 20.7076 497.309 19.694 485.527 19.694C473.744 19.694 462.002 20.7076 450.625 22.7145V2.24023L449.025 2.50376C368.29 15.883 301.746 72.4203 275.347 150.06C267.431 172.987 263.402 197.171 263.402 221.943C263.402 257.439 271.966 292.691 288.141 323.909C319.966 385.778 379.789 429.625 448.155 441.18L449.754 441.443V421.05C461.395 423.179 473.42 424.253 485.506 424.253C497.592 424.253 509.456 423.199 521.198 421.111V441.443L522.797 441.18C591.244 429.666 651.128 385.818 682.952 323.889C699.087 292.63 707.631 257.378 707.631 221.943C707.631 197.171 703.602 172.987 695.686 150.04C669.287 72.4203 602.743 15.883 522.007 2.50376L520.408 2.24023H520.428Z" fill="#E56B37"/>
<path d="M260.974 270.88C248.382 226.444 258.848 182.78 259.294 180.955L276.987 185.313C276.886 185.719 267.25 226.242 278.506 265.893L260.974 270.88Z" fill="#E56B37"/>
<path d="M460.928 421.375V441.991C460.928 441.991 486.153 446.714 510.345 442.092V422.895C510.345 422.895 473.479 423.362 460.928 421.375Z" fill="#E56B37"/>
<path d="M460.928 22.5723V1.97645C460.928 1.97645 485.505 -2.4022 510.345 1.87509L510.689 22.8967C510.689 22.8967 473.479 20.606 460.948 22.5723H460.928Z" fill="#E56B37"/>
<path d="M320.718 246.594H300.129C300.129 246.594 292.598 225.775 300.028 197.111H319.2C319.2 197.111 318.734 234.026 320.718 246.594Z" fill="#E56B37"/>
<path d="M650.684 247.871L669.855 246.594C669.855 246.594 674.188 222.248 669.956 197.111H650.785C650.785 197.111 654.975 229.769 650.684 247.871Z" fill="#E56B37"/>
<path opacity="0.16" d="M263.909 299.238H55.9565L23.1602 168.426H254.273C248.443 185.373 245.284 203.617 245.284 222.531C245.284 250.181 251.965 276.25 263.909 299.238Z" fill="#E56B37"/>
<path d="M263.181 298.57H55.228L22.4316 167.758H253.544C247.714 184.705 244.556 202.949 244.556 221.863C244.556 249.513 251.237 275.582 263.181 298.57Z" fill="url(#paint1_radial_516_249)" style="mix-blend-mode:soft-light"/>
<path d="M254.272 168.426C248.441 185.373 245.283 203.617 245.283 222.531C245.283 250.181 251.964 276.25 263.908 299.238H55.9553L23.159 168.426H254.272ZM256.195 167.048H21.418L21.8431 168.75L54.6394 299.563L54.9026 300.597H266.176L265.143 298.59C252.895 274.994 246.68 249.391 246.68 222.511C246.68 204.063 249.676 186.002 255.588 168.852L256.215 167.027L256.195 167.048Z" fill="#E56B37"/>
<path d="M332.215 405.645C289.073 374.447 265.691 321.113 263.444 315.802H43.9106L43.7689 315.295L0 152.068H254.9C256.56 146.169 273.06 90.9294 317.922 54.0352L318.792 55.0893C271.946 93.6052 256.236 152.332 256.095 152.92L255.953 153.427H1.80177L6.0329 168.934L44.9634 314.443H264.375L264.557 314.869C264.78 315.437 288.142 372.075 333.045 404.55L332.235 405.665L332.215 405.645Z" fill="#E56B37"/>
<path opacity="0.16" d="M713.809 295.166H921.762L954.558 164.354H723.445C729.276 181.301 732.434 199.545 732.434 218.458C732.434 246.109 725.753 272.178 713.809 295.166Z" fill="#E56B37"/>
<path d="M714.596 295.166H922.549L955.345 164.354H724.232C730.063 181.301 733.221 199.545 733.221 218.458C733.221 246.109 726.54 272.178 714.596 295.166Z" fill="url(#paint2_radial_516_249)" style="mix-blend-mode:soft-light"/>
<path d="M954.556 164.353L921.76 295.165H713.807C725.751 272.177 732.432 246.108 732.432 218.458C732.432 199.544 729.294 181.28 723.443 164.353H954.556ZM956.318 162.975H721.54L722.168 164.799C728.079 181.969 731.076 200.011 731.076 218.458C731.076 245.338 724.861 270.921 712.613 294.537L711.58 296.544H922.853L923.116 295.51L955.913 164.698L956.338 162.995L956.318 162.975Z" fill="#E56B37"/>
<path d="M645.501 401.591L644.691 400.476C689.574 368.001 712.936 311.362 713.159 310.795L713.341 310.369H932.752L971.683 164.86L976.177 149.352H721.763L721.621 148.846C721.479 148.258 705.769 89.5513 658.923 51.0151L659.794 49.9609C704.656 86.8551 721.155 142.095 722.815 147.994H977.999L977.756 148.866L973.019 165.225L933.825 311.727H714.272C712.025 317.038 688.663 370.353 645.501 401.571V401.591Z" fill="#E56B37"/>
<defs>
<radialGradient id="paint0_radial_516_249" cx="0" cy="0" r="1" gradientUnits="userSpaceOnUse" gradientTransform="translate(486.157 222.714) rotate(90) scale(167.382 167.18)">
<stop stop-color="#C75448"/>
<stop offset="1" stop-color="#E56B37"/>
</radialGradient>
<radialGradient id="paint1_radial_516_249" cx="0" cy="0" r="1" gradientUnits="userSpaceOnUse" gradientTransform="translate(142.806 233.164) rotate(90) scale(65.4061 120.375)">
<stop stop-color="#C75448"/>
<stop offset="1" stop-color="#E56B37"/>
</radialGradient>
<radialGradient id="paint2_radial_516_249" cx="0" cy="0" r="1" gradientUnits="userSpaceOnUse" gradientTransform="translate(834.97 229.76) rotate(90) scale(65.4061 120.375)">
<stop stop-color="#C75448"/>
<stop offset="1" stop-color="#E56B37"/>
</radialGradient>
</defs>
</svg>
